<svg width="28" height="38" viewBox="0 0 28 38" fill="none" xmlns="http://www.w3.org/2000/svg">
<path d="M27.0652 6.68248C27.1622 6.1721 26.9949 5.67857 26.6453 5.28949C26.5915 5.22958 26.4972 5.20162 26.4071 5.21878C26.3171 5.23594 26.2492 5.29489 26.2354 5.36775L26.0611 6.28504L24.6199 6.73455L23.4102 5.96601L23.5805 5.07039C23.5944 4.99702 23.5506 4.92424 23.47 4.88688C23.3893 4.84952 23.2882 4.85515 23.2149 4.90108C22.7536 5.19016 22.4241 5.61392 22.3294 6.11254C22.1926 6.83263 22.5815 7.51907 23.267 7.92612L22.2428 13.3171C22.1498 13.8069 22.5734 14.264 23.1887 14.3382C23.8042 14.4122 24.3786 14.0752 24.4717 13.5854L25.4959 8.1944C26.3019 7.96666 26.9284 7.4025 27.0652 6.68248Z" fill="#696E73"/>
<path d="M26.0844 9.63089C25.4561 9.0165 24.3207 8.92405 23.5488 9.42423L20.048 11.6929L19.022 9.96531C18.2585 8.6798 16.6393 7.83478 14.8624 7.78197V7.7793C13.931 7.7793 6.1241 7.7793 5.19028 7.7793C2.79841 7.7793 0.842857 9.3041 0.831055 11.1784C0.831055 11.1809 0.831055 11.1834 0.831055 11.1857V21.7916C0.831055 22.5889 1.64322 23.2353 2.64488 23.2353C3.64662 23.2353 4.4587 22.5889 4.4587 21.7916V11.1907C4.4625 10.9161 4.81037 10.6667 5.19038 10.6667H5.25525V21.6438H14.8626V10.6591C15.2506 10.706 15.593 10.9045 15.7634 11.1916L17.7726 14.5747C18.2719 15.4154 19.6325 15.6623 20.54 15.074L25.825 11.6489C26.5966 11.1487 26.713 10.2453 26.0844 9.63089Z" fill="#FFB69E"/>
<path d="M19.0221 9.96629C18.2587 8.68077 16.6394 7.83567 14.8626 7.78293V7.78027H12.2281C12.27 8.77005 11.1144 9.60963 9.90787 9.60963C8.61467 9.60963 7.65568 8.77323 7.58942 7.78027H5.19028C2.7985 7.78027 0.84295 9.30507 0.831055 11.1794C0.831055 11.1819 0.831055 11.1844 0.831055 11.1867V14.0299H4.4586V11.1915C4.46242 10.9169 4.81027 10.6674 5.19028 10.6674H5.25515C5.25515 12.8214 5.25515 19.3 5.25515 21.6445H14.8624C14.8624 20.338 14.8624 11.8172 14.8624 10.6599C15.2505 10.7069 15.5928 10.9054 15.7633 11.1924L16.93 13.1567L19.9166 11.4724L19.0221 9.96629Z" fill="#64AFFF"/>
<path d="M14.8622 21.6451V16.9364H13.5017V11.5488H6.30022V16.9364H5.25488V21.6451V35.4921C5.25488 36.4488 6.22941 37.2244 7.43143 37.2244C8.63346 37.2244 9.60799 36.4488 9.60799 35.4921V21.6451H10.5092V35.4921C10.5092 36.4488 11.4837 37.2244 12.6857 37.2244C13.8877 37.2244 14.8622 36.4488 14.8622 35.4921V21.6451Z" fill="#5F6E9B"/>
<path d="M10.0599 6.85895C12.1361 6.85895 13.8191 5.51939 13.8191 3.86697C13.8191 2.21456 12.1361 0.875 10.0599 0.875C7.98381 0.875 6.30078 2.21456 6.30078 3.86697C6.30078 5.51939 7.98381 6.85895 10.0599 6.85895Z" fill="#FFB69E"/>
<path d="M11.8202 12.7295H8.24023V14.3495H11.8202V12.7295Z" fill="#414B82"/>
<path d="M7.5793 7.7793H6.30078V12.443H7.5793V7.7793Z" fill="#414B82"/>
<path d="M13.5022 7.7793H12.2236V12.443H13.5022V7.7793Z" fill="#414B82"/>
<path d="M6.92864 12.1189C7.07694 12.1189 7.19714 12.0232 7.19714 11.9052C7.19714 11.7871 7.07694 11.6914 6.92864 11.6914C6.78036 11.6914 6.66016 11.7871 6.66016 11.9052C6.66016 12.0232 6.78036 12.1189 6.92864 12.1189Z" fill="#5F6E9B"/>
<path d="M12.8608 12.1189C13.009 12.1189 13.1293 12.0232 13.1293 11.9052C13.1293 11.7871 13.009 11.6914 12.8608 11.6914C12.7125 11.6914 12.5923 11.7871 12.5923 11.9052C12.5923 12.0232 12.7125 12.1189 12.8608 12.1189Z" fill="#5F6E9B"/>
</svg>
