<svg width="50" height="51" viewBox="0 0 50 51" fill="none" xmlns="http://www.w3.org/2000/svg">
<g clip-path="url(#clip0_2_1504)">
<path d="M25.7517 34.1586H13.2212C13.014 34.1586 12.8153 34.0763 12.6688 33.9298C12.5223 33.7833 12.4399 33.5845 12.4399 33.3774V22.8672C12.4399 22.66 12.5223 22.4613 12.6688 22.3148C12.8153 22.1683 13.014 22.0859 13.2212 22.0859H25.7517C25.9589 22.0859 26.1576 22.1683 26.3041 22.3148C26.4506 22.4613 26.5329 22.66 26.5329 22.8672V33.3774C26.5329 33.5845 26.4506 33.7833 26.3041 33.9298C26.1576 34.0763 25.9589 34.1586 25.7517 34.1586ZM14.0024 32.5961H24.9704V23.6484H14.0024V32.5961Z" fill="#EB3300"/>
<path d="M31.686 37.5735H30.1235V22.8673C30.1235 22.66 30.2058 22.4613 30.3524 22.3148C30.4989 22.1683 30.6975 22.086 30.9048 22.086H31.4516C32.7734 22.08 34.0618 22.5005 35.1254 23.285C36.1892 24.0695 36.9715 25.1762 37.3563 26.4407L35.8625 26.8993C35.587 25.993 35.0375 25.1943 34.2897 24.6129C33.5418 24.0315 32.6323 23.696 31.686 23.6524V37.5735Z" fill="#EB3300"/>
<path d="M24.6876 44.6051H2.40869C2.20149 44.6051 2.00277 44.5228 1.85627 44.3762C1.70975 44.2297 1.62744 44.0311 1.62744 43.8238V28.2598C1.62992 26.6236 2.28097 25.0552 3.43788 23.8983C4.59479 22.7414 6.16319 22.0904 7.79932 22.0879H8.0665C8.2737 22.0879 8.47239 22.1702 8.61889 22.3167C8.76547 22.4632 8.84772 22.662 8.84772 22.8691V43.0426H24.6876V44.6051ZM3.19307 43.0426H7.2876V23.677C6.16108 23.8046 5.12086 24.3421 4.36517 25.1872C3.6095 26.0324 3.19118 27.1261 3.18994 28.2598L3.19307 43.0426Z" fill="#EB3300"/>
<path d="M10.6445 36.7857C9.75358 36.7857 8.89908 36.4318 8.26909 35.8018C7.63909 35.1718 7.28516 34.3173 7.28516 33.4264V21.9912C7.28516 21.784 7.36746 21.5853 7.51398 21.4388C7.66049 21.2923 7.85921 21.21 8.06641 21.21H13.2187C13.4259 21.21 13.6247 21.2923 13.7712 21.4388C13.9177 21.5853 14 21.784 14 21.9912V33.4279C13.9996 34.318 13.646 35.1714 13.0169 35.801C12.3877 36.4305 11.5346 36.7847 10.6445 36.7857ZM8.84766 22.7725V33.4279C8.84766 33.9045 9.037 34.3615 9.37391 34.6985C9.71091 35.0355 10.168 35.2248 10.6445 35.2248C11.1211 35.2248 11.5782 35.0355 11.9151 34.6985C12.2521 34.3615 12.4414 33.9045 12.4414 33.4279V22.7725H8.84766Z" fill="#EB3300"/>
<path d="M28.3282 36.7857C27.4372 36.7857 26.5827 36.4318 25.9527 35.8018C25.3227 35.1718 24.9688 34.3173 24.9688 33.4264V21.9912C24.9688 21.784 25.0511 21.5853 25.1976 21.4388C25.3441 21.2923 25.5428 21.21 25.75 21.21H30.9062C31.1134 21.21 31.3122 21.2923 31.4587 21.4388C31.6052 21.5853 31.6875 21.784 31.6875 21.9912V33.4279C31.6871 34.3186 31.333 35.1727 30.703 35.8024C30.0731 36.432 29.2188 36.7857 28.3282 36.7857ZM26.5313 22.7725V33.4279C26.5313 33.9045 26.7206 34.3615 27.0576 34.6985C27.3945 35.0355 27.8516 35.2248 28.3282 35.2248C28.8047 35.2248 29.2617 35.0355 29.5987 34.6985C29.9357 34.3615 30.125 33.9045 30.125 33.4279V22.7725H26.5313Z" fill="#EB3300"/>
<path d="M8.8501 43.8238H7.2876V33.4277C7.2876 33.2205 7.36991 33.0218 7.51641 32.8753C7.66293 32.7288 7.86164 32.6465 8.06885 32.6465C8.27605 32.6465 8.47476 32.7288 8.62126 32.8753C8.76776 33.0218 8.8501 33.2205 8.8501 33.4277C8.8501 33.9043 9.03943 34.3613 9.37635 34.6983C9.71335 35.0353 10.1704 35.2246 10.6469 35.2246C11.1235 35.2246 11.5806 35.0353 11.9175 34.6983C12.2545 34.3613 12.4438 33.9043 12.4438 33.4277C12.4419 33.2151 12.5221 33.01 12.6676 32.855C12.8131 32.7 13.0128 32.6071 13.2251 32.5957H25.7517C25.9588 32.5957 26.1576 32.678 26.3041 32.8245C26.4506 32.971 26.5329 33.1697 26.5329 33.377C26.5296 33.6129 26.5728 33.8472 26.6599 34.0665C26.7472 34.2858 26.8768 34.4857 27.0413 34.655C27.2058 34.8242 27.4019 34.9593 27.6187 35.0527C27.8354 35.1461 28.0684 35.1959 28.3044 35.1992C28.5403 35.2025 28.7747 35.1594 28.9939 35.0721C29.2133 34.985 29.4132 34.8554 29.5824 34.6909C29.7516 34.5264 29.8868 34.3301 29.9802 34.1135C30.0735 33.8967 30.1233 33.6637 30.1267 33.4277C30.1267 33.2205 30.2089 33.0218 30.3555 32.8753C30.502 32.7288 30.7007 32.6465 30.9079 32.6465C31.1151 32.6465 31.3138 32.7288 31.4603 32.8753C31.6068 33.0218 31.6892 33.2205 31.6892 33.4277V37.573H30.1267V36.2645C29.6713 36.5522 29.1533 36.7262 28.6165 36.7718C28.0798 36.8174 27.5399 36.7333 27.0425 36.5265C26.5451 36.3196 26.1047 35.9962 25.7584 35.5835C25.4123 35.1708 25.1703 34.6809 25.0532 34.155H13.9157C13.8 34.6809 13.5593 35.171 13.2139 35.5841C12.8686 35.9971 12.4288 36.3209 11.9318 36.5278C11.4348 36.7348 10.8952 36.8189 10.3587 36.773C9.82226 36.7272 9.30476 36.5527 8.8501 36.2645V43.8238Z" fill="#EB3300"/>
<path d="M27.5469 30.5928H29.1094V32.9701H27.5469V30.5928Z" fill="#EB3300"/>
<path d="M9.86328 30.5928H11.4258V32.9701H9.86328V30.5928Z" fill="#EB3300"/>
<path d="M2.40869 38.8828H8.21025V40.4453H2.40869V38.8828Z" fill="#EB3300"/>
<path d="M2.16504 35.6436H8.31347V37.2061H2.16504V35.6436Z" fill="#EB3300"/>
<path d="M19.4859 23.575C18.4697 23.5638 17.4659 23.3504 16.533 22.9472C15.6001 22.5439 14.7568 21.959 14.0523 21.2266C12.1842 19.27 11.1661 16.6539 11.2203 13.9492V11.9094H12.7828V13.9554C12.7294 16.2461 13.5843 18.4648 15.1609 20.1274C15.7133 20.7224 16.3826 21.1972 17.1268 21.5219C17.8711 21.8464 18.6743 22.014 19.4863 22.014C20.2983 22.014 21.1015 21.8464 21.8458 21.5219C22.5901 21.1972 23.2593 20.7224 23.8117 20.1274C25.3807 18.4748 26.2351 16.2704 26.1898 13.9922C26.1898 13.9789 26.1898 13.9664 26.1898 13.9539V11.707H27.7523V13.9204V13.9484C27.8079 16.6533 26.7902 19.27 24.9218 21.2266C24.2171 21.9594 23.3734 22.5444 22.4402 22.9476C21.5068 23.3508 20.5026 23.5641 19.4859 23.575Z" fill="#EB3300"/>
<path d="M19.4858 27.2852C18.7318 27.2864 17.987 27.1195 17.3056 26.7966C16.6242 26.4738 16.0234 26.0031 15.5468 25.4188L13.864 23.3618C13.7704 23.2473 13.7111 23.1086 13.6932 22.9619C13.6754 22.815 13.6995 22.6662 13.7628 22.5326C13.8261 22.3989 13.926 22.2861 14.051 22.207C14.176 22.1279 14.3208 22.0859 14.4686 22.0859H24.5046C24.6525 22.0859 24.7972 22.1279 24.9222 22.207C25.0471 22.2861 25.1471 22.3989 25.2105 22.5326C25.2737 22.6662 25.2979 22.815 25.28 22.9619C25.2621 23.1086 25.2029 23.2473 25.1093 23.3618L23.4256 25.4188C22.949 26.0032 22.3481 26.4739 21.6665 26.7968C20.985 27.1197 20.24 27.2865 19.4858 27.2852ZM16.117 23.6484L16.7561 24.4297C17.0871 24.8339 17.5037 25.1594 17.9759 25.383C18.448 25.6066 18.9638 25.7226 19.4862 25.7226C20.0086 25.7226 20.5245 25.6066 20.9966 25.383C21.4687 25.1594 21.8853 24.8339 22.2163 24.4297L22.8554 23.6484H16.117Z" fill="#EB3300"/>
<path d="M24.9288 14.7334H14.0444C13.2956 14.7326 12.5777 14.4348 12.0483 13.9053C11.5188 13.3758 11.221 12.6579 11.2202 11.9092V10.8154C11.2202 10.6083 11.3025 10.4095 11.449 10.263C11.5955 10.1165 11.7942 10.0342 12.0015 10.0342H26.971C27.1781 10.0342 27.3769 10.1165 27.5234 10.263C27.6699 10.4095 27.7522 10.6083 27.7522 10.8154V11.9092C27.7514 12.6578 27.4536 13.3756 26.9244 13.905C26.395 14.4344 25.6774 14.7323 24.9288 14.7334ZM12.7827 11.5967V11.9092C12.7831 12.2437 12.9161 12.5643 13.1527 12.8009C13.3892 13.0374 13.7099 13.1705 14.0444 13.1709H24.9288C25.2631 13.1703 25.5836 13.0371 25.82 12.8006C26.0563 12.5641 26.1893 12.2435 26.1897 11.9092V11.5967H12.7827Z" fill="#EB3300"/>
<path d="M27.7522 11.3627H26.1897V7.5252C26.1883 6.17255 25.6503 4.8757 24.694 3.91917C23.7375 2.96263 22.4408 2.4245 21.0881 2.42285H17.885C16.5323 2.4245 15.2355 2.9626 14.279 3.91912C13.3225 4.87564 12.7843 6.17248 12.7827 7.5252V11.3627H11.2202V7.5252C11.222 5.75814 11.9248 4.064 13.1743 2.8145C14.4238 1.565 16.118 0.862212 17.885 0.860352H21.0881C22.855 0.862419 24.549 1.5653 25.7984 2.81477C27.0476 4.06425 27.7504 5.75827 27.7522 7.5252V11.3627Z" fill="#EB3300"/>
<path d="M20.8593 9.44297H18.1249C17.448 9.44214 16.7991 9.17289 16.3204 8.6943C15.8419 8.21564 15.5725 7.56672 15.5718 6.88985V6.45156C15.5725 5.77604 15.8408 5.1283 16.3177 4.6499C16.7946 4.1715 17.4415 3.90133 18.117 3.89844H20.8514C21.5284 3.89906 22.1774 4.16825 22.6561 4.64692C23.1348 5.12559 23.4039 5.77462 23.4045 6.45156V6.88985C23.4039 7.56544 23.1359 8.2133 22.6589 8.69172C22.1819 9.17022 21.5349 9.4403 20.8593 9.44297ZM18.1249 5.4586C17.8623 5.45901 17.6105 5.56351 17.4249 5.7492C17.2392 5.93489 17.1347 6.18662 17.1343 6.44922V6.8875C17.134 7.14916 17.2372 7.40032 17.4213 7.5863C17.6054 7.77227 17.8554 7.878 18.117 7.88047H20.8514C21.1141 7.88026 21.3659 7.77583 21.5517 7.5901C21.7374 7.40436 21.8419 7.15251 21.842 6.88985V6.45156C21.8419 6.19025 21.7385 5.93957 21.5544 5.75406C21.3704 5.56855 21.1205 5.4632 20.8593 5.46094L18.1249 5.4586Z" fill="#EB3300"/>
<path d="M37.9545 39.3829C37.7473 39.3828 37.5485 39.3005 37.4021 39.154L33.3591 35.1125C33.2126 34.966 33.1304 34.7674 33.1304 34.5602C33.1304 34.353 33.2126 34.1544 33.3591 34.0079L34.9146 32.4563C35.0611 32.3099 35.2598 32.2275 35.467 32.2275C35.6741 32.2275 35.8728 32.3099 36.0193 32.4563L40.0591 36.4954C40.2056 36.6419 40.2879 36.8405 40.2879 37.0477C40.2879 37.2549 40.2056 37.4535 40.0591 37.6L38.5068 39.1524C38.4344 39.2252 38.3483 39.283 38.2535 39.3226C38.1588 39.3622 38.0571 39.3826 37.9545 39.3829ZM35.0193 34.5657L37.9545 37.5009L38.4021 37.0532L35.4685 34.1149L35.0193 34.5657Z" fill="#EB3300"/>
<path d="M26.9412 49.2059C26.2217 49.2064 25.5183 48.9934 24.92 48.594C24.3217 48.1945 23.8552 47.6265 23.5797 46.9619C23.3043 46.2973 23.2322 45.5659 23.3727 44.8603C23.5131 44.1547 23.8597 43.5065 24.3686 42.998L26.6342 40.7324C26.6506 40.716 26.6686 40.6996 26.6866 40.6847L34.5818 32.791C34.2377 31.5347 34.2342 30.2095 34.5721 28.9515C34.9098 27.6934 35.5766 26.548 36.5037 25.6331C37.4309 24.7182 38.585 24.0668 39.8474 23.7458C41.1098 23.4247 42.4349 23.4457 43.6866 23.8066C43.8172 23.844 43.9359 23.915 44.0307 24.0124C44.1257 24.1097 44.1935 24.2301 44.2276 24.3618C44.2617 24.4934 44.2608 24.6316 44.2252 24.7628C44.1894 24.894 44.1201 25.0135 44.0241 25.1097L40.2959 28.8371L41.0772 31.4386L43.6779 32.2199L47.4061 28.4934C47.5022 28.3973 47.6217 28.3279 47.7529 28.2921C47.884 28.2564 48.0222 28.2555 48.1538 28.2895C48.2854 28.3235 48.4058 28.3913 48.5032 28.486C48.6007 28.5809 48.6717 28.6995 48.7092 28.83C49.0701 30.0816 49.0911 31.4068 48.7701 32.6691C48.4491 33.9315 47.7976 35.0857 46.8827 36.0129C45.9677 36.94 44.8224 37.6068 43.5644 37.9445C42.3064 38.2823 40.9811 38.279 39.7248 37.9347L30.2272 47.434C30.2092 47.4524 30.1902 47.4696 30.1702 47.4855L29.5131 48.1425C29.1757 48.4805 28.7747 48.7485 28.3333 48.931C27.892 49.1135 27.4188 49.2069 26.9412 49.2059ZM27.6873 41.8902L25.4732 44.1027C25.275 44.2942 25.1169 44.5233 25.0081 44.7765C24.8993 45.0298 24.8421 45.3021 24.8397 45.5778C24.8372 45.8534 24.8898 46.1267 24.9942 46.3818C25.0986 46.6369 25.2527 46.8686 25.4476 47.0635C25.6425 47.2585 25.8742 47.4125 26.1293 47.517C26.3844 47.6213 26.6577 47.6739 26.9334 47.6715C27.209 47.669 27.4814 47.6118 27.7347 47.503C27.9879 47.3942 28.2169 47.2361 28.4084 47.0379L29.1202 46.3261C29.1389 46.3074 29.1577 46.291 29.1772 46.2738L38.9545 36.4965C39.0581 36.3927 39.1887 36.3201 39.3316 36.2871C39.4745 36.2541 39.6237 36.262 39.7623 36.3097C40.6467 36.6188 41.593 36.7078 42.5194 36.569C43.4459 36.4304 44.3246 36.0681 45.0797 35.5137C45.8347 34.9592 46.4434 34.2292 46.8532 33.3868C47.2628 32.5444 47.4612 31.6148 47.4311 30.6785L44.4529 33.655C44.3528 33.7556 44.2272 33.827 44.0896 33.8615C43.9519 33.8961 43.8074 33.8925 43.6717 33.8511L40.2264 32.8136C40.1027 32.7765 39.9901 32.7092 39.8987 32.6179C39.8074 32.5265 39.7401 32.414 39.7029 32.2902L38.6647 28.8395C38.6241 28.7042 38.6209 28.5605 38.6554 28.4237C38.6899 28.2868 38.7609 28.1619 38.8607 28.0621L41.8373 25.0855C41.0489 25.0619 40.264 25.1994 39.5305 25.4895C38.7971 25.7797 38.1306 26.2164 37.5717 26.773C36.8014 27.5386 36.2642 28.507 36.0224 29.5658C35.7807 30.6246 35.8443 31.7303 36.2061 32.7543C36.2539 32.8929 36.2617 33.0421 36.2287 33.185C36.1957 33.3279 36.1232 33.4585 36.0193 33.5621L27.7381 41.8434C27.7232 41.8582 27.7053 41.8746 27.6873 41.8902Z" fill="#EB3300"/>
<path d="M27.3578 45.9363C27.851 45.9363 28.2508 45.5366 28.2508 45.0434C28.2508 44.5502 27.851 44.1504 27.3578 44.1504C26.8647 44.1504 26.4648 44.5502 26.4648 45.0434C26.4648 45.5366 26.8647 45.9363 27.3578 45.9363Z" fill="#EB3300"/>
</g>
<defs>
<clipPath id="clip0_2_1504">
<rect width="50" height="50" fill="white" transform="translate(0 0.19043)"/>
</clipPath>
</defs>
</svg>
