<svg width="118" height="126" viewBox="0 0 118 126" fill="none" xmlns="http://www.w3.org/2000/svg">
<g opacity="0.1">
<path d="M54.9803 43.9038C54.9803 42.6257 53.9428 41.5898 52.6663 41.5898H49.8991C48.621 41.5898 47.585 42.6273 47.585 43.9038C47.585 45.182 48.6225 46.2179 49.8991 46.2179H52.6663C53.9428 46.2195 54.9803 45.182 54.9803 43.9038Z" fill="#1E1E1E"/>
<path d="M69.2613 46.219H72.0285C73.3066 46.219 74.3426 45.1815 74.3426 43.9049C74.3426 42.6268 73.3051 41.5908 72.0285 41.5908H69.2613C67.9832 41.5908 66.9473 42.6283 66.9473 43.9049C66.9457 45.1815 67.9832 46.219 69.2613 46.219Z" fill="#1E1E1E"/>
<path d="M54.9771 58.1455C56.3849 60.019 58.6239 61.1377 60.963 61.1377C63.3021 61.1377 65.538 60.019 66.9458 58.1455C67.7146 57.1237 67.5099 55.6721 66.488 54.9033C65.4661 54.1346 64.0145 54.3409 63.2474 55.3627C62.1677 56.794 59.7536 56.794 58.6786 55.3627C57.9099 54.3409 56.4567 54.1346 55.4364 54.9033C54.4145 55.6721 54.2083 57.1237 54.9771 58.1455Z" fill="#1E1E1E"/>
<path d="M57.7333 125.153C58.1911 125.681 58.8348 125.95 59.4817 125.95C60.0192 125.95 60.5614 125.763 60.9989 125.381C61.963 124.544 62.0661 123.081 61.2286 122.117L50.0395 109.239C49.4239 107.548 48.202 106.106 46.5911 105.234C47.1145 101.941 48.6802 99.0172 51.0114 96.8592L71.4223 120.845C71.8802 121.383 72.5317 121.661 73.1848 121.661C73.7161 121.661 74.2489 121.48 74.6848 121.109C74.9427 120.889 75.1302 120.622 75.2677 120.336C77.2989 122.105 79.8442 123.113 82.5677 123.113H109.157C111.3 123.113 113.435 122.439 115.046 121.027C117.008 119.305 118.046 116.884 117.946 114.314C117.482 102.15 117.128 95.1722 116.894 93.5862C115.132 81.2862 99.3302 77.8393 98.7722 77.7252C97.7572 77.458 84.8132 74.4986 83.1239 73.9861C79.9223 73.0018 77.2536 70.7612 75.6645 67.8424C79.6348 65.0674 82.9083 61.108 85.2822 56.2471H88.8082C91.2272 56.2471 93.6392 55.508 95.4782 53.9361C98.2362 51.5783 99.4412 48.0205 98.7642 44.5674C97.8862 40.0846 93.9912 36.8252 89.4472 36.6862C89.4472 36.6862 89.2972 32.8674 89.0742 31.5721C89.3922 31.3283 91.2612 29.2486 91.3552 28.9674C91.8422 27.4986 93.5522 22.319 94.7972 18.0924C97.2352 9.52213 90.0192 5.98153 89.9022 5.93153C84.4992 3.64243 75.1364 0.86273 60.9739 0.95333C40.4895 1.08303 31.613 5.98303 31.3739 6.10023C27.3427 8.62683 25.563 13.5111 27.0458 18.0533L30.7239 29.3549L30.7473 29.3471C31.0255 30.3236 32.288 31.1143 32.8052 31.5158C32.5895 32.8533 32.4442 36.6893 32.4442 36.6893C27.9145 36.8408 24.0348 40.0955 23.1567 44.569C22.4817 48.0236 23.688 51.5799 26.4458 53.9361C28.2848 55.508 30.6989 56.2471 33.1192 56.2471H36.688C39.0723 61.1033 42.3302 65.0783 46.3052 67.8174C44.0864 72.2424 38.1817 74.1502 37.9177 74.2283L13.8958 45.6346V41.3346C13.8958 40.1424 13.4489 38.9924 12.6442 38.1111L8.3223 33.3799C7.4036 32.3705 6.1552 31.8158 4.8114 31.8158C4.7505 31.8158 4.6958 31.8315 4.6364 31.8346V23.5424C4.6364 22.2643 3.5989 21.2283 2.3223 21.2283C1.0427 21.2283 0.00830078 22.2658 0.00830078 23.5424V36.6049V65.6127V79.0971C0.00830078 80.3752 1.0442 81.4111 2.3223 81.4111C3.6005 81.4111 4.6364 80.3736 4.6364 79.0971V70.3799C4.688 70.3815 9.1114 70.3955 9.1114 70.3955C9.5411 70.3955 9.9505 70.3205 10.3458 70.2127L18.0239 79.4018C13.2911 81.3768 6.1364 85.6268 4.9989 93.5862C4.7161 95.5702 4.277 105.956 3.9583 114.303C3.8458 116.859 4.8677 119.272 6.8145 121.002C8.4177 122.427 10.5489 123.111 12.6942 123.111H39.0427C41.8755 123.111 44.6661 122.166 46.7864 120.286C47.5317 119.625 49.4708 116.706 49.7552 115.967L57.7333 125.153ZM42.0083 104.253H36.2739C36.5817 101.98 38.1598 97.5882 38.1973 97.4812C42.038 88.8422 50.713 84.7783 53.2895 83.9518C53.3458 83.9361 56.2958 82.7408 60.9645 82.7408C64.7192 82.7408 68.5848 83.9361 68.638 83.9518C77.6098 86.8299 84.3532 94.6132 85.6522 104.253H79.9177C78.3614 95.1592 70.4552 88.3283 60.963 88.3283C51.4708 88.3283 43.5645 95.1582 42.0083 104.253ZM54.913 94.3022C56.763 93.4632 58.7973 92.9582 60.963 92.9582C68.2302 92.9582 74.2208 98.2422 75.3333 105.225C73.1208 106.433 71.5645 108.658 71.413 111.286C71.363 112.173 71.4411 113.048 71.5973 113.908L54.913 94.3022ZM97.7112 82.2283C97.8442 82.2565 111.007 85.1158 112.314 94.2522C112.516 95.6222 112.885 102.998 113.321 114.491C113.363 115.542 112.983 116.541 112.253 117.298C111.517 118.061 110.53 118.481 109.466 118.481H82.5677C80.8161 118.481 79.1739 117.802 77.938 116.566C76.6208 115.248 75.927 113.42 76.0364 111.55C76.1208 110.078 77.4708 108.881 79.0489 108.881L104.172 108.975C105.45 108.975 106.486 107.938 106.486 106.661C106.486 105.383 105.449 104.347 104.172 104.347H100.314V92.7732C100.314 91.4952 99.2772 90.4592 98.0002 90.4592C96.7212 90.4592 95.6862 91.4972 95.6862 92.7732V104.255H90.2922C89.1442 94.1412 82.9802 85.669 74.3473 81.3033C75.963 80.0908 77.4083 78.6799 78.6364 77.0846C79.6333 77.6205 80.677 78.0783 81.7724 78.4143C84.0752 79.1111 96.6192 81.9455 97.7112 82.2283ZM74.927 74.3361C73.3411 76.3752 71.302 78.0549 68.9911 79.2268C66.4364 78.5127 63.7489 78.1111 60.963 78.1111C58.1755 78.1111 55.4848 78.5143 52.9286 79.2283C50.6286 78.0721 48.6192 76.419 47.0052 74.3518C47.2208 74.1471 49.577 71.4205 50.2973 70.1299C51.0427 70.4737 51.8333 70.8002 52.7411 71.1033C55.2552 71.9643 58.0192 72.4002 60.9598 72.4002C63.8989 72.4002 66.6645 71.9627 69.1411 71.1143C70.0036 70.8361 70.8364 70.4955 71.6567 70.1236C72.5302 71.7002 73.6333 73.1111 74.927 74.3361ZM94.2242 45.4565C94.5222 46.9768 94.1272 48.5346 93.1392 49.7361C92.1602 50.9299 90.7072 51.6158 89.1572 51.6158H87.1772C88.2472 48.444 88.9752 44.9908 89.3322 41.319C91.7142 41.4033 93.7612 43.1033 94.2242 45.4565ZM35.752 27.9736C37.7161 26.4877 40.1208 25.6174 42.5989 25.6174H79.352C81.8302 25.6174 84.2352 26.4877 86.1992 27.9736C84.2362 29.4596 81.8317 30.3283 79.352 30.3283H42.5989C40.1192 30.3283 37.7161 29.458 35.752 27.9736ZM33.7755 10.058C41.4255 7.08613 50.5723 5.57993 60.9739 5.57993C74.5005 5.57993 83.2724 8.12363 87.9862 10.1236C90.2112 11.4346 91.2302 14.1674 90.3832 16.6986C89.7022 19.0111 88.8912 21.5736 88.2142 23.6736C85.6052 21.944 82.5036 20.9861 79.352 20.9861H42.5989C39.4505 20.9861 36.352 21.9424 33.7442 23.6705L31.4489 16.6174C30.6364 14.1315 31.5942 11.4611 33.7755 10.058ZM32.7692 51.6158C31.2192 51.6158 29.7677 50.9299 28.7848 49.733C27.7989 48.5346 27.4052 46.9768 27.702 45.458C28.163 43.108 30.1989 41.4143 32.577 41.3221C32.938 44.9846 33.6927 48.4283 34.777 51.6158H32.7692ZM37.0739 40.1487C37.0739 40.1487 37.1208 34.494 37.163 33.9393C38.902 34.5705 40.7333 34.9565 42.5989 34.9565H79.352C81.1989 34.9565 83.0067 34.5752 84.7272 33.958C84.7712 34.5018 84.8272 39.9768 84.8272 39.9768C84.0422 50.4799 79.1364 63.019 67.6817 66.7252C63.6223 68.1143 58.3223 68.1205 54.2239 66.719C53.0145 66.3158 52.0567 65.9033 51.1286 65.3752C43.2458 61.3158 37.9895 51.819 37.0739 40.1487ZM43.263 77.0518C44.5114 78.6783 45.9567 80.0971 47.5661 81.3065C46.7067 81.7408 45.8692 82.2143 45.0614 82.7283L41.1036 78.0174C41.8645 77.733 42.5895 77.4236 43.263 77.0518ZM41.3598 85.5393C39.0755 87.5611 37.0973 89.9192 35.5317 92.5642L13.6723 66.9752C13.8036 66.5408 13.8958 52.844 13.8958 52.844L41.3598 85.5393ZM9.2661 65.6127C9.2661 65.6971 4.6364 65.6127 4.6364 65.6127L4.9052 36.5018L9.2661 41.3377V65.6127ZM39.3583 118.483H12.413C11.3552 118.483 10.3661 118.061 9.6333 117.295C8.9098 116.539 8.538 115.55 8.5848 114.495C9.0223 103 9.3848 95.6192 9.5833 94.2422C10.5083 87.7518 17.5317 84.4346 21.1817 83.1361L33.3583 97.1222C32.5036 99.3772 31.9145 101.764 31.6317 104.255H26.2427V92.7732C26.2427 91.4952 25.2052 90.4592 23.9286 90.4592C22.6489 90.4592 21.6145 91.4972 21.6145 92.7732V104.347H17.7567C16.477 104.347 15.4427 105.384 15.4427 106.661C15.4427 107.939 16.4786 108.975 17.7567 108.975L42.8786 108.881C45.5552 108.881 45.8973 111.445 45.9067 111.52C45.9708 112.986 43.7458 118.483 39.3583 118.483Z" fill="#1E1E1E"/>
</g>
</svg>
