<svg width="69" height="60" viewBox="0 0 69 60" fill="none" xmlns="http://www.w3.org/2000/svg">
<g clip-path="url(#clip0_2_1083)">
<path fill-rule="evenodd" clip-rule="evenodd" d="M27.3955 34.6175C27.2945 33.8448 27.0503 33.0877 26.6643 32.3866L25.0439 29.4483C24.8334 29.0665 24.3527 28.9276 23.971 29.1381C23.59 29.3487 23.451 29.8293 23.6608 30.2104L25.2819 33.1494C25.571 33.6743 25.7542 34.242 25.83 34.8216C25.8861 35.2532 26.2826 35.5584 26.7142 35.5023C27.1465 35.4462 27.4517 35.0498 27.3955 34.6175ZM25.3472 25.995C26.3598 27.8286 27.477 29.8511 28.3619 31.4519C28.7513 32.1578 29.2678 32.7732 29.8756 33.2736C30.2124 33.5501 30.7099 33.5017 30.9871 33.1648C31.2636 32.8286 31.2152 32.3305 30.8783 32.0539C30.4236 31.6791 30.0362 31.218 29.7443 30.6883L29.7436 30.6869C28.8587 29.0876 27.7415 27.0651 26.7295 25.2322C26.519 24.8504 26.0384 24.7121 25.6573 24.9226C25.2756 25.1332 25.1366 25.614 25.3472 25.995Z" fill="white"/>
<path fill-rule="evenodd" clip-rule="evenodd" d="M9.79927 17.5607C11.3249 20.327 14.6849 26.4203 16.2105 29.1867C16.5185 29.746 17.0365 30.1593 17.6491 30.3362C18.2624 30.5137 18.9207 30.44 19.4793 30.1319C22.0976 28.6884 27.666 25.6176 30.2835 24.1733C30.8429 23.8652 31.2561 23.348 31.4337 22.7347C31.6106 22.1213 31.5368 21.4631 31.2288 20.9045C29.7032 18.1382 26.3432 12.0449 24.8176 9.27853C24.5096 8.71993 23.9916 8.3059 23.379 8.12905C22.7656 7.95147 22.1074 8.02519 21.5488 8.33331C18.9305 9.77752 13.3621 12.8484 10.7439 14.292C10.1852 14.6 9.77186 15.1179 9.59435 15.7305C9.41751 16.3438 9.49116 17.0021 9.79927 17.5607ZM11.1817 16.7986C11.0757 16.6063 11.0505 16.3796 11.1115 16.1691C11.1726 15.9586 11.3143 15.7804 11.5066 15.6743L22.3108 9.71642C22.5031 9.61042 22.7291 9.58516 22.9403 9.64559C23.1508 9.70668 23.329 9.8491 23.435 10.0414C24.9606 12.8077 28.3206 18.9011 29.8462 21.6673C29.9521 21.8589 29.9774 22.0856 29.9164 22.2961C29.8553 22.5074 29.7136 22.6849 29.5212 22.7908L18.717 28.7494C18.5247 28.8554 18.298 28.8806 18.0875 28.8196C17.877 28.7585 17.6987 28.616 17.5928 28.4245L11.1817 16.7986Z" fill="white"/>
<path fill-rule="evenodd" clip-rule="evenodd" d="M14.4934 19.6217L12.4563 20.7451C12.0753 20.9557 11.9363 21.4364 12.1461 21.8174C12.3566 22.1992 12.8374 22.3381 13.2191 22.1276L15.2556 21.0048C15.6373 20.7942 15.7763 20.3136 15.5657 19.9318C15.3552 19.5501 14.8745 19.4111 14.4934 19.6217ZM26.092 13.2252L16.8381 18.3284C16.457 18.5389 16.318 19.0196 16.5286 19.4013C16.7384 19.7823 17.2191 19.9213 17.6009 19.7115L26.855 14.6076C27.2367 14.3978 27.3757 13.917 27.1651 13.5353C26.9545 13.1536 26.4738 13.0147 26.092 13.2252Z" fill="white"/>
<path fill-rule="evenodd" clip-rule="evenodd" d="M20.652 19.6809C19.4218 20.3588 18.9741 21.9083 19.6527 23.1385C20.3306 24.368 21.8801 24.8164 23.1103 24.1378C24.3404 23.4593 24.7882 21.9104 24.1096 20.6803C23.4317 19.4501 21.8822 19.0024 20.652 19.6809ZM21.4148 21.0634C21.8816 20.8058 22.4696 20.9757 22.7271 21.4423C22.9846 21.9097 22.8148 22.4978 22.3474 22.7553C21.8807 23.0129 21.2927 22.8423 21.0352 22.3757C20.7777 21.909 20.9475 21.321 21.4148 21.0634Z" fill="white"/>
<path fill-rule="evenodd" clip-rule="evenodd" d="M24.2687 10.5846L10.9866 17.9095C10.6048 18.1193 10.4659 18.6 10.6764 18.9818C10.8869 19.3635 11.3676 19.5025 11.7493 19.292L25.0307 11.967C25.4125 11.7572 25.5514 11.2765 25.3409 10.8947C25.1305 10.513 24.6498 10.374 24.2687 10.5846Z" fill="white"/>
<path fill-rule="evenodd" clip-rule="evenodd" d="M42.7402 24.2748L39.1388 30.8053C38.0027 32.865 37.9157 35.3422 38.903 37.4762C38.903 37.477 38.9038 37.4784 38.9038 37.479C39.8602 39.5254 39.856 41.9843 38.6827 44.112C36.727 47.658 32.2603 48.9493 28.7136 46.9941C25.1677 45.0383 23.8765 40.5716 25.8322 37.025C27.0055 34.8966 29.0841 33.5808 31.3249 33.291C33.6548 32.9878 35.7017 31.5935 36.8364 29.5359C37.8946 27.6222 39.2315 25.2019 40.4428 23.0082C40.6533 22.6264 40.5143 22.1457 40.1326 21.9352C39.7516 21.7247 39.2708 21.8637 39.0603 22.2448C37.8498 24.4384 36.5129 26.8581 35.454 28.7725C34.5621 30.3901 32.953 31.4869 31.1214 31.7255C28.4 32.0778 25.8751 33.677 24.4491 36.263C22.0729 40.5718 23.6421 45.9998 27.9516 48.3767C32.2611 50.7529 37.6891 49.1837 40.0653 44.8742C41.4913 42.289 41.4969 39.3009 40.3362 36.8132C39.5594 35.1353 39.6288 33.1872 40.5214 31.5683L44.1228 25.0371C44.3334 24.656 44.1944 24.1753 43.8127 23.9648C43.4315 23.7541 42.9507 23.8931 42.7402 24.2748Z" fill="white"/>
<path fill-rule="evenodd" clip-rule="evenodd" d="M59.2005 12.6384C59.5086 12.0798 59.5822 11.4209 59.4054 10.8082C59.2279 10.1948 58.8145 9.67761 58.2552 9.36958C55.1682 7.66638 47.8587 3.63558 44.771 1.93304C44.2124 1.62501 43.5541 1.55128 42.9408 1.72812C42.3275 1.90571 41.8102 2.319 41.5022 2.8776C39.7092 6.12813 35.3163 14.0952 33.5233 17.3458C33.2151 17.9044 33.1415 18.5626 33.319 19.1759C33.4958 19.7885 33.9099 20.3064 34.4685 20.6145C37.5562 22.3177 44.8657 26.3486 47.9527 28.0511C48.512 28.3591 49.1703 28.4328 49.7829 28.2553C50.3962 28.0785 50.9141 27.6652 51.2221 27.1059L59.2005 12.6384ZM57.818 11.8755L49.8397 26.3437C49.7337 26.5352 49.5555 26.6777 49.345 26.7387C49.1338 26.7998 48.9077 26.7745 48.7155 26.6685C45.6278 24.9653 38.3183 20.9345 35.2312 19.2321C35.039 19.1262 34.8965 18.9478 34.8355 18.7374C34.7744 18.5269 34.8004 18.3002 34.9063 18.108L42.8846 3.64053C42.9906 3.44825 43.1681 3.3065 43.3794 3.24548C43.5899 3.18447 43.8166 3.20974 44.0081 3.31566C47.0959 5.01812 54.4054 9.049 57.4931 10.7522C57.6854 10.8582 57.8271 11.0357 57.8882 11.247C57.9493 11.4573 57.924 11.684 57.818 11.8755Z" fill="white"/>
<path fill-rule="evenodd" clip-rule="evenodd" d="M31.0012 37.0175C31.9802 36.6716 33.0967 36.7291 34.0771 37.2695C35.8974 38.2737 36.5606 40.5671 35.5564 42.3881C34.5522 44.2091 32.2588 44.8723 30.4377 43.8681C28.6167 42.864 27.9535 40.5705 28.9578 38.7495C29.1683 38.3678 29.0294 37.887 28.6476 37.6766C28.2666 37.4667 27.7859 37.6057 27.5753 37.9868C26.15 40.5706 27.0911 43.826 29.675 45.2507C32.2595 46.6759 35.5143 45.7349 36.9396 43.151C38.3641 40.5672 37.423 37.3117 34.8392 35.8871C33.449 35.1201 31.8645 35.038 30.4757 35.5285C30.0652 35.6738 29.8491 36.125 29.9943 36.5355C30.1388 36.9466 30.5907 37.1621 31.0012 37.0175Z" fill="white"/>
<path fill-rule="evenodd" clip-rule="evenodd" d="M43.9247 11.4632L55.444 17.8155C55.8251 18.0261 56.3057 17.8871 56.5162 17.5054C56.7268 17.1236 56.5878 16.6429 56.2061 16.4331L44.6867 10.08C44.3057 9.86951 43.825 10.0085 43.6144 10.3902C43.404 10.772 43.5429 11.2527 43.9247 11.4632ZM39.1275 8.81763L41.5352 10.1453C41.917 10.3559 42.397 10.2169 42.6075 9.83518C42.8181 9.45342 42.6791 8.97267 42.2974 8.76289L39.8903 7.43517C39.5086 7.22465 39.0278 7.36359 38.818 7.74535C38.6075 8.12636 38.7465 8.60711 39.1275 8.81763Z" fill="white"/>
<path fill-rule="evenodd" clip-rule="evenodd" d="M44.5047 16.4949C44.8184 16.4135 45.1616 16.4465 45.4676 16.6156C46.1013 16.9651 46.3321 17.763 45.9826 18.3967C45.6332 19.0303 44.8346 19.2613 44.2008 18.9118C43.8394 18.7125 43.6093 18.3672 43.5433 17.9897C43.4675 17.5602 43.0576 17.2732 42.6282 17.349C42.1994 17.4248 41.9124 17.8346 41.9882 18.2641C42.1349 19.095 42.6422 19.855 43.4387 20.2942C44.8352 21.0648 46.5946 20.556 47.3651 19.1588C48.1356 17.7623 47.6269 16.003 46.2297 15.2325C45.556 14.8613 44.7981 14.7869 44.1076 14.9666C43.6858 15.0761 43.4325 15.5076 43.5419 15.9294C43.6522 16.3511 44.083 16.6044 44.5047 16.4949Z" fill="white"/>
<path fill-rule="evenodd" clip-rule="evenodd" d="M40.8603 5.67603L57.1761 14.6739C57.5579 14.8844 58.0385 14.7455 58.2492 14.3637C58.4597 13.9827 58.3207 13.502 57.939 13.2914L41.6231 4.29357C41.2413 4.08304 40.7606 4.22199 40.5501 4.60374C40.3403 4.9855 40.4786 5.4655 40.8603 5.67603Z" fill="white"/>
</g>
<defs>
<clipPath id="clip0_2_1083">
<rect width="50" height="50" fill="white" transform="translate(9.5 0.55957)"/>
</clipPath>
</defs>
</svg>
