<svg width="51" height="51" viewBox="0 0 51 51" fill="none" xmlns="http://www.w3.org/2000/svg">
<g clip-path="url(#clip0_2_1603)">
<path fill-rule="evenodd" clip-rule="evenodd" d="M18.0654 34.2484C17.9644 33.4757 17.7202 32.7186 17.3342 32.0175L15.7138 29.0792C15.5033 28.6974 15.0226 28.5585 14.6409 28.769C14.2599 28.9795 14.1209 29.4602 14.3307 29.8413L15.9518 32.7802C16.2409 33.3051 16.4241 33.8728 16.4999 34.4525C16.556 34.8841 16.9525 35.1893 17.3841 35.1332C17.8164 35.0771 18.1216 34.6807 18.0654 34.2484ZM16.0171 25.6259C17.0297 27.4595 18.1469 29.482 19.0318 31.0827C19.4212 31.7887 19.9377 32.4041 20.5455 32.9045C20.8823 33.181 21.3798 33.1326 21.657 32.7957C21.9335 32.4595 21.8851 31.9613 21.5482 31.6848C21.0935 31.31 20.7061 30.8489 20.4142 30.3191L20.4135 30.3177C19.5286 28.7185 18.4114 26.696 17.3994 24.863C17.1889 24.4813 16.7083 24.343 16.3272 24.5535C15.9455 24.7641 15.8065 25.2449 16.0171 25.6259Z" fill="#EB3300"/>
<path fill-rule="evenodd" clip-rule="evenodd" d="M0.469189 17.1915C1.9948 19.9578 5.35481 26.0511 6.88043 28.8175C7.18846 29.3768 7.70643 29.7901 8.31903 29.967C8.93236 30.1445 9.59061 30.0708 10.1492 29.7627C12.7675 28.3192 18.3359 25.2484 20.9534 23.8041C21.5128 23.496 21.926 22.9788 22.1036 22.3655C22.2805 21.7521 22.2067 21.0939 21.8987 20.5353C20.3731 17.769 17.0131 11.6757 15.4875 8.90939C15.1795 8.35079 14.6615 7.93676 14.0489 7.75991C13.4355 7.58233 12.7773 7.65605 12.2187 7.96417C9.60043 9.40838 4.03204 12.4792 1.41383 13.9228C0.855155 14.2308 0.44178 14.7487 0.264276 15.3613C0.0874341 15.9746 0.161077 16.6329 0.469189 17.1915ZM1.85165 16.4294C1.74564 16.2371 1.72038 16.0104 1.78147 15.7999C1.84248 15.5894 1.98424 15.4112 2.17652 15.3051L12.9807 9.34728C13.173 9.24128 13.399 9.21602 13.6102 9.27645C13.8207 9.33754 13.9989 9.47996 14.1049 9.67224C15.6305 12.4385 18.9905 18.5319 20.5161 21.2981C20.622 21.4897 20.6473 21.7164 20.5863 21.9269C20.5252 22.1382 20.3835 22.3157 20.1911 22.4216L9.38693 28.3802C9.19465 28.4862 8.96794 28.5114 8.75742 28.4504C8.54689 28.3893 8.36864 28.2468 8.26272 28.0553L1.85165 16.4294Z" fill="#EB3300"/>
<path fill-rule="evenodd" clip-rule="evenodd" d="M5.16336 19.2526L3.12621 20.376C2.74519 20.5866 2.60625 21.0673 2.81603 21.4483C3.02656 21.8301 3.5073 21.969 3.88897 21.7585L5.92547 20.6357C6.30722 20.4251 6.44617 19.9445 6.23564 19.5627C6.02512 19.181 5.54446 19.042 5.16336 19.2526ZM16.7619 12.8561L7.50797 17.9593C7.12687 18.1698 6.98793 18.6505 7.19853 19.0322C7.40832 19.4132 7.88906 19.5522 8.27082 19.3424L17.5249 14.2385C17.9066 14.0287 18.0456 13.5479 17.835 13.1662C17.6244 12.7845 17.1437 12.6456 16.7619 12.8561Z" fill="#EB3300"/>
<path fill-rule="evenodd" clip-rule="evenodd" d="M11.3219 19.3118C10.0917 19.9897 9.644 21.5392 10.3226 22.7694C11.0005 23.9989 12.55 24.4473 13.7802 23.7687C15.0103 23.0902 15.4581 21.5413 14.7795 20.3112C14.1016 19.081 12.5521 18.6333 11.3219 19.3118ZM12.0847 20.6943C12.5515 20.4367 13.1395 20.6066 13.397 21.0732C13.6545 21.5406 13.4847 22.1287 13.0173 22.3862C12.5506 22.6438 11.9626 22.4732 11.7051 22.0066C11.4476 21.5399 11.6174 20.9519 12.0847 20.6943Z" fill="#EB3300"/>
<path fill-rule="evenodd" clip-rule="evenodd" d="M14.9386 10.2155L1.65648 17.5404C1.27472 17.7502 1.13577 18.2309 1.3463 18.6127C1.55683 18.9944 2.03757 19.1334 2.41924 18.9229L15.7006 11.5979C16.0824 11.3881 16.2213 10.9074 16.0108 10.5256C15.8004 10.1439 15.3197 10.0049 14.9386 10.2155Z" fill="#EB3300"/>
<path fill-rule="evenodd" clip-rule="evenodd" d="M33.4101 23.9056L29.8087 30.4361C28.6726 32.4958 28.5856 34.973 29.5729 37.107C29.5729 37.1078 29.5737 37.1092 29.5737 37.1098C30.5301 39.1561 30.5259 41.6151 29.3526 43.7428C27.3969 47.2887 22.9302 48.5801 19.3835 46.6249C15.8376 44.669 14.5464 40.2024 16.5021 36.6557C17.6754 34.5274 19.754 33.2115 21.9948 32.9217C24.3247 32.6186 26.3716 31.2242 27.5063 29.1667C28.5645 27.253 29.9014 24.8326 31.1127 22.639C31.3232 22.2572 31.1842 21.7765 30.8025 21.566C30.4215 21.3555 29.9407 21.4944 29.7302 21.8755C28.5197 24.0692 27.1828 26.4889 26.1239 28.4033C25.232 30.0208 23.6229 31.1177 21.7913 31.3563C19.0699 31.7085 16.545 33.3078 15.119 35.8938C12.7428 40.2026 14.312 45.6306 18.6215 48.0075C22.931 50.3837 28.359 48.8145 30.7352 44.505C32.1612 41.9197 32.1668 38.9317 31.0061 36.444C30.2293 34.766 30.2987 32.818 31.1913 31.1991L34.7927 24.6679C35.0033 24.2868 34.8643 23.8061 34.4826 23.5956C34.1014 23.3849 33.6206 23.5238 33.4101 23.9056Z" fill="#EB3300"/>
<path fill-rule="evenodd" clip-rule="evenodd" d="M49.8704 12.2692C50.1785 11.7106 50.2521 11.0517 50.0753 10.439C49.8978 9.8257 49.4844 9.30847 48.9251 9.00044C45.8381 7.29724 38.5286 3.26644 35.4409 1.5639C34.8823 1.25587 34.224 1.18214 33.6107 1.35898C32.9974 1.53657 32.4801 1.94986 32.1721 2.50846C30.3791 5.75899 25.9862 13.726 24.1932 16.9766C23.885 17.5352 23.8114 18.1934 23.9889 18.8067C24.1657 19.4193 24.5798 19.9372 25.1384 20.2453C28.2261 21.9485 35.5356 25.9794 38.6226 27.6819C39.1819 27.9899 39.8402 28.0636 40.4528 27.8861C41.0661 27.7093 41.584 27.296 41.892 26.7367L49.8704 12.2692ZM48.4879 11.5063L40.5096 25.9745C40.4036 26.166 40.2254 26.3085 40.0149 26.3695C39.8037 26.4306 39.5776 26.4053 39.3854 26.2993C36.2977 24.5961 28.9882 20.5653 25.9011 18.8629C25.7089 18.757 25.5664 18.5786 25.5054 18.3682C25.4443 18.1577 25.4703 17.931 25.5762 17.7388L33.5545 3.27139C33.6605 3.07911 33.838 2.93736 34.0493 2.87634C34.2598 2.81533 34.4865 2.8406 34.678 2.94652C37.7658 4.64898 45.0753 8.67986 48.163 10.383C48.3553 10.489 48.497 10.6665 48.5581 10.8778C48.6192 11.0881 48.5939 11.3148 48.4879 11.5063Z" fill="#EB3300"/>
<path fill-rule="evenodd" clip-rule="evenodd" d="M21.6711 36.6484C22.6501 36.3025 23.7666 36.36 24.747 36.9004C26.5673 37.9046 27.2305 40.198 26.2263 42.019C25.2221 43.84 22.9287 44.5032 21.1076 43.499C19.2866 42.4948 18.6234 40.2014 19.6277 38.3804C19.8382 37.9987 19.6993 37.5179 19.3175 37.3075C18.9365 37.0976 18.4558 37.2366 18.2452 37.6176C16.8199 40.2015 17.761 43.4569 20.3449 44.8816C22.9294 46.3068 26.1842 45.3658 27.6095 42.7819C29.034 40.198 28.0929 36.9426 25.5091 35.518C24.1189 34.751 22.5344 34.6689 21.1456 35.1594C20.7351 35.3047 20.519 35.7558 20.6642 36.1664C20.8087 36.5775 21.2606 36.793 21.6711 36.6484Z" fill="#EB3300"/>
<path fill-rule="evenodd" clip-rule="evenodd" d="M34.5946 11.0951L46.1139 17.4474C46.495 17.6579 46.9756 17.5189 47.1861 17.1372C47.3967 16.7554 47.2577 16.2747 46.876 16.0649L35.3566 9.71188C34.9756 9.50135 34.4949 9.6403 34.2843 10.0221C34.0739 10.4038 34.2128 10.8845 34.5946 11.0951ZM29.7974 8.44946L32.2051 9.77719C32.5869 9.98771 33.0669 9.84877 33.2774 9.46701C33.488 9.08526 33.349 8.60451 32.9673 8.39473L30.5602 7.06701C30.1785 6.85648 29.6977 6.99543 29.4879 7.37718C29.2774 7.75819 29.4164 8.23894 29.7974 8.44946Z" fill="#EB3300"/>
<path fill-rule="evenodd" clip-rule="evenodd" d="M35.1746 16.1257C35.4883 16.0443 35.8315 16.0773 36.1375 16.2464C36.7712 16.5959 37.002 17.3938 36.6525 18.0275C36.3031 18.6611 35.5045 18.8921 34.8707 18.5426C34.5093 18.3433 34.2792 17.998 34.2132 17.6205C34.1374 17.191 33.7275 16.904 33.2981 16.9798C32.8693 17.0556 32.5823 17.4654 32.6581 17.8949C32.8048 18.7258 33.3121 19.4858 34.1086 19.925C35.5051 20.6956 37.2645 20.1868 38.035 18.7896C38.8055 17.3931 38.2968 15.6338 36.8996 14.8633C36.2259 14.4921 35.468 14.4177 34.7775 14.5974C34.3557 14.7069 34.1024 15.1384 34.2118 15.5602C34.3221 15.9819 34.7529 16.2352 35.1746 16.1257Z" fill="#EB3300"/>
<path fill-rule="evenodd" clip-rule="evenodd" d="M31.5302 5.30689L47.846 14.3048C48.2278 14.5153 48.7084 14.3764 48.9191 13.9946C49.1296 13.6136 48.9906 13.1329 48.6089 12.9224L32.293 3.92443C31.9112 3.7139 31.4305 3.85285 31.22 4.23461C31.0102 4.61636 31.1485 5.09636 31.5302 5.30689Z" fill="#EB3300"/>
</g>
<defs>
<clipPath id="clip0_2_1603">
<rect width="50" height="50" fill="white" transform="translate(0.169922 0.19043)"/>
</clipPath>
</defs>
</svg>
