<svg width="50" height="51" viewBox="0 0 50 51" fill="none" xmlns="http://www.w3.org/2000/svg">
<g clip-path="url(#clip0_2_1417)">
<mask id="mask0_2_1417" style="mask-type:luminance" maskUnits="userSpaceOnUse" x="0" y="0" width="50" height="51">
<path d="M50 0.5H0V50.5H50V0.5Z" fill="white"/>
</mask>
<g mask="url(#mask0_2_1417)">
<path d="M49.1388 22.1667H45.0389V17.1667H49.1388C49.4371 17.1671 49.7126 17.0087 49.8619 16.7508C50.0113 16.4928 50.0113 16.1747 49.8623 15.9167C48.6018 13.7389 46.3313 12.3404 43.819 12.1952L42.2057 9.3965C41.7841 8.66081 40.8755 8.36132 40.0991 8.7015L35.8116 10.5566L37.6638 6.28735C38.0146 5.50977 37.7192 4.59342 36.9807 4.16658L33.9256 2.40918C33.1928 1.98967 32.2622 2.18417 31.7588 2.86247L28.9671 6.63322L28.4499 1.97746C28.3507 1.13517 27.637 0.500407 26.789 0.5H23.1892C22.3416 0.499593 21.6278 1.13273 21.5273 1.9742L21.0322 6.6084L21.0122 6.58317L18.2522 2.86897C17.7594 2.17725 16.8203 1.97461 16.0854 2.40186L13.0638 4.14421C12.3228 4.56087 12.0181 5.47111 12.3583 6.24992L14.2056 10.5041L9.9555 8.65267C9.184 8.31413 8.2815 8.61035 7.86076 9.33992L6.21078 12.2C3.71688 12.3599 1.46794 13.7544 0.215495 15.9167C0.0665692 16.1747 0.0669761 16.4928 0.215902 16.7508C0.365235 17.0087 0.641114 17.1671 0.938962 17.1667H5.0389V22.1667H0.938962C0.641114 22.1663 0.365235 22.3246 0.215902 22.5825C0.0669761 22.8405 0.0665692 23.1587 0.215495 23.4167C2.04451 26.5998 5.91415 27.9842 9.34717 26.6833C9.25809 27.1138 9.21042 27.552 9.20559 27.9918C9.20559 28.0598 9.21409 28.1273 9.23075 28.1932L10.904 34.8933C11.7523 37.3482 13.1692 39.5674 15.0389 41.3699V46.3333C15.0418 48.6336 16.9058 50.4972 19.2056 50.5H30.8723C33.1724 50.4972 35.0361 48.6336 35.0389 46.3333V41.6402C37.3631 39.6915 39.0664 37.1057 39.9388 34.2007C39.9506 34.1633 39.96 34.1247 39.9665 34.086L41.1766 26.8334C41.8874 27.0543 42.6276 27.1667 43.3723 27.1667C46.0501 27.1647 48.5236 25.7356 49.8623 23.4167C50.0113 23.1587 50.0113 22.8405 49.8619 22.5825C49.7126 22.3246 49.4371 22.1663 49.1388 22.1667ZM13.5391 12.0307C14.1682 12.3067 14.9022 12.1683 15.3876 11.6824C15.8731 11.1962 16.0106 10.4622 15.7339 9.8335L13.8817 5.59602L16.9033 3.84595L19.6483 7.54508C19.6943 7.62199 19.7504 7.69238 19.8147 7.75504C19.8371 7.77742 19.8607 7.79817 19.8855 7.8173C20.3266 8.23152 20.9581 8.37232 21.533 8.18514C22.1573 7.98617 22.6024 7.43523 22.6658 6.78337L23.1892 2.16667H26.7938L27.3107 6.81673C27.3831 7.50073 27.8681 8.07039 28.5326 8.25024C29.1966 8.43009 29.903 8.18351 30.3108 7.62932L33.0972 3.8549L36.1416 5.60987L34.2817 9.89658C34.0066 10.5257 34.1453 11.2588 34.6312 11.7435C35.117 12.2285 35.8507 12.3661 36.4789 12.0902L40.7591 10.2241L41.9599 12.3074C40.7262 12.5447 39.5722 13.0891 38.605 13.8907C38.1346 13.328 37.4392 13.0017 36.7056 13H35.0389C34.422 13.002 33.828 13.234 33.3723 13.6498C32.9861 13.3023 32.4998 13.0847 31.9831 13.0285C29.4676 10.9199 26.131 10.0671 22.912 10.7096C19.693 11.3521 16.9399 13.4207 15.4267 16.3333H13.4207C12.3773 14.2178 10.3921 12.7233 8.07072 12.305L9.289 10.1818L13.5391 12.0307ZM34.2056 15.5C34.2056 15.0398 34.5787 14.6667 35.0389 14.6667H36.7056C37.1658 14.6667 37.5389 15.0398 37.5389 15.5V23.8333C37.5389 24.2935 37.1658 24.6667 36.7056 24.6667H35.0389C34.5787 24.6667 34.2056 24.2935 34.2056 23.8333V15.5ZM28.3723 13.6498C27.9169 13.234 27.3228 13.002 26.7056 13H25.0389C24.422 13.002 23.828 13.234 23.3723 13.6498C22.9169 13.234 22.3228 13.002 21.7056 13H21.2283C23.7657 11.8354 26.6962 11.8941 29.1848 13.1599C28.8849 13.2697 28.6091 13.4358 28.3723 13.6498ZM17.5389 16.3333H17.3505C17.4108 16.2417 17.4758 16.1543 17.5389 16.0652V16.3333ZM19.2056 15.5C19.2056 15.0398 19.5787 14.6667 20.0389 14.6667H21.7056C22.1658 14.6667 22.5389 15.0398 22.5389 15.5V21.3333H19.2056V15.5ZM24.2056 15.5C24.2056 15.0398 24.5787 14.6667 25.0389 14.6667H26.7056C27.1658 14.6667 27.5389 15.0398 27.5389 15.5V21.4782C27.2712 21.3846 26.9896 21.3353 26.7056 21.3333H24.2056V15.5ZM29.2056 15.5C29.2056 15.0398 29.5787 14.6667 30.0389 14.6667H31.7056C32.1658 14.6667 32.5389 15.0398 32.5389 15.5V23.8333C32.5389 24.2935 32.1658 24.6667 31.7056 24.6667H30.0389C29.5787 24.6667 29.2056 24.2935 29.2056 23.8333V15.5ZM2.62639 23.8333H5.87224C6.33244 23.8333 6.70557 23.4602 6.70557 23V16.3333C6.70557 15.8732 6.33244 15.5 5.87224 15.5H2.62639C4.01473 14.1381 5.99145 13.5587 7.89535 13.9562C9.79925 14.3533 11.3797 15.6746 12.1072 17.4783C12.2345 17.7937 12.5405 18 12.8807 18H17.5389V21.3333H12.8807C12.543 21.3333 12.2386 21.5368 12.1096 21.8493C11.9693 22.1992 11.7938 22.5345 11.5855 22.849C11.1294 23.238 10.727 23.6864 10.3897 24.1824C8.0935 26.0684 4.7443 25.9179 2.62639 23.8333ZM38.3323 33.7499C37.4938 36.4611 35.8649 38.8606 33.6538 40.64C33.4748 40.7982 33.3723 41.0257 33.3723 41.265V46.3333C33.3723 47.7139 32.2528 48.8333 30.8723 48.8333H19.2056C17.8249 48.8333 16.7056 47.7139 16.7056 46.3333V41.0217C16.7064 40.797 16.6161 40.5814 16.4558 40.4243C15.5231 39.5193 13.2713 37.1243 12.5173 34.4648L10.8723 27.8926C10.8808 27.4332 10.9503 26.9771 11.0789 26.536C11.6222 24.6785 13.1883 23.3011 15.0999 23H26.7056C26.9293 22.9911 27.1463 23.0761 27.3045 23.2343C27.4628 23.3927 27.5478 23.6099 27.5389 23.8333C27.5361 26.1336 25.6724 27.9972 23.3723 28H17.5389V29.6667H20.1956L20.4556 29.8257C22.1808 30.8776 23.6697 31.7858 24.2308 34.036C24.5328 35.2762 24.5328 36.5706 24.2308 37.8107L25.8539 38.1893C26.2189 36.6918 26.2189 35.1289 25.8539 33.6315C25.467 32.0405 24.5319 30.6367 23.2123 29.6667H23.3723C25.7603 29.663 27.9047 28.2027 28.7824 25.9818C29.1604 26.208 29.5918 26.3293 30.0324 26.3325H31.7056C32.3228 26.3305 32.9169 26.0986 33.3723 25.6827C33.8276 26.099 34.422 26.3309 35.0389 26.3333H36.7056C37.8384 26.3288 38.8263 25.5639 39.114 24.4685C39.3333 24.7721 39.5372 25.087 39.7239 25.4117L38.3323 33.7499ZM43.3723 25.5C42.7053 25.5017 42.0429 25.3865 41.4158 25.1598C41.4045 25.0512 41.3728 24.9458 41.3214 24.8493C40.8133 23.8158 40.0922 22.9015 39.2056 22.1667V15.6001C40.2831 14.4868 41.7605 13.8496 43.31 13.8309C44.8591 13.8122 46.3516 14.4132 47.4555 15.5H44.2056C43.7453 15.5 43.3723 15.8732 43.3723 16.3333V23C43.3723 23.4602 43.7453 23.8333 44.2056 23.8333H47.4555C46.365 24.9018 44.8989 25.5004 43.3723 25.5Z" fill="#EB3300"/>
<path d="M27.5391 45.5V47.1667C29.8392 47.1638 31.7029 45.3002 31.7057 43H30.0391C30.0391 44.3806 28.9196 45.5 27.5391 45.5Z" fill="#EB3300"/>
</g>
</g>
<defs>
<clipPath id="clip0_2_1417">
<rect width="50" height="50" fill="white" transform="translate(0 0.5)"/>
</clipPath>
</defs>
</svg>
